<svg xmlns="http://www.w3.org/2000/svg" viewBox="0 0 380 380" fill="#ECD0BF"><path d="M356.2 242.1c-.4-2.4-.9-4.9-1.4-7.3-8.4-42.2-23.9-83.2-58.8-110.9-35.8-28.6-81.2-41.3-126.8-34.9C126.5 95 84 113.7 57 148.1c-22.4 28.6-33.9 66.7-35.4 102.7-.2 5.7-.4 29.7 2.6 33.7s4 6 13 6.1c4 0 72.5-2.3 90.7 1.6.7.1 1.3.3 2 .4 9 1.2 10.2-8.3 10.5-15.1.7-19.7-.6-35.5 11.9-52.1 8.1-10.9 24.8-18.3 38.6-16.6 12.9 1.6 25.6 13.1 31.6 24.3 8 15 11.3 30.7 12 47.4.3 8.2 9.8 9.6 18.2 9.5 36.6-.6 58.6-1.5 93.2-.6 3.8.1 7.4-1.8 9.6-6 5-9.8 2.7-30.5.7-41.3zm-15.7 30.7c-21.1-.3-69.1 1.3-88.8 1.1-.1 0-.6-6.8-.7-7.5-2.3-21.2-11.8-43.3-27.3-58.7-14.4-14.2-40.7-20.1-59.6-12.2-17.9 7.5-33.3 23.8-37.9 42.9-3.9 16-3.8 23.2-3.3 36.9-16.8-2.7-66.3-2.9-84.1-1.1-2.4-29.7 2.8-53.7 12.5-79.4 14.6-36.9 26.8-50.5 59-70.3 32.8-20.2 74.8-25.9 112.5-18.2 18.2 3.7 35.7 11.2 51 21.8 35.6 24.6 53 61.3 62.3 102.3 2 9.8 6 32 4.4 42.4z"></path></svg>